<?xml version="1.0" encoding="utf-8"?>
<!-- Generator: Adobe Illustrator 18.1.1, SVG Export Plug-In . SVG Version: 6.00 Build 0)  -->
<svg version="1.2" baseProfile="tiny" id="Layer_1" xmlns="http://www.w3.org/2000/svg" xmlns:xlink="http://www.w3.org/1999/xlink"
	 x="0px" y="0px" viewBox="0 0 561 178" xml:space="preserve">
<path fill="#91DB48" d="M67.2,120.8c0-1.3,0-2.6,0.1-3.9c0.9-11.8,8.8-21.8,15.7-31.1c-3-11.4-6.1-22.4-17.2-28.9
	c-0.3-0.2-0.6-0.4-1-0.5C55.4,63.6,49.3,75,49.3,87.8C49.3,101.6,56.4,113.7,67.2,120.8z"/>
<path fill="#63B132" d="M129.8,132.7c-8-0.2-14.1-1.4-19.3-3.5c-6.5,3.4-13.8,5.3-21.6,5.3c-25.8,0-46.7-21-46.7-46.7
	c0-13.6,5.8-25.9,15.1-34.4c-7.9-2.1-16.4-1.4-23.7,2.5C12.9,67,14.2,97.6,21.9,115.2c9.2,20.9,27.4,37.3,49.9,42.8
	c28.7,7.1,58.9-3.7,76-27.7C140.8,132.2,135.1,132.8,129.8,132.7z"/>
<path fill="#90B4FD" d="M88.9,48.2c-4.1,0-8.1,0.6-11.8,1.8c7.7,7.9,11.5,18.8,14.5,29.3c3.4,12.1,5.4,25.6,15.6,34.1
	c2.2,1.9,4.6,3.4,7.2,4.6c8.6-7.3,14.1-18.1,14.1-30.3C128.5,65.9,110.7,48.2,88.9,48.2z"/>
<path fill="#5881D7" d="M135.1,31.5c-18-14.9-42.7-20.1-65.2-14c-13.8,3.8-26.3,11.6-35.7,22.3c12.4-2.6,25.8-1.9,36.4,4.9
	c5.6-2.4,11.8-3.7,18.2-3.7c25.8,0,46.7,21,46.7,46.7c0,12.8-5.2,24.4-13.5,32.8c6.2,1.2,12.7,0.7,18.6-1.6
	c11.7-4.6,20.5-16.2,20.9-28.9C163,67.9,152,45.4,135.1,31.5z"/>
<path fill="#91DB48" d="M102.7,124.9c-1.2-0.9-2.4-1.9-3.6-2.9c-7.6-6.9-10.9-17.2-13.7-27.2c-4.8,8-9.1,16.3-8.6,26
	c0.1,1.7,0.3,3.3,0.7,4.9c3.6,1.1,7.4,1.7,11.3,1.7C93.7,127.3,98.4,126.5,102.7,124.9z"/>
<path fill="#364C86" d="M235,72.6c-2.2-2.6-5-4.7-8.3-6.1c-3.4-1.4-6.8-2.1-10.4-2.1c-4.4,0-8.3,0.8-11.9,2.3
	c-3.5,1.5-6.6,3.6-9.1,6.2c-2.5,2.6-4.5,5.7-5.9,9.3c-1.4,3.5-2.1,7.3-2.1,11.4c0,3.8,0.7,7.4,2,10.7c1.3,3.4,3.2,6.3,5.7,8.9
	c2.5,2.6,5.5,4.6,9.1,6.1c3.6,1.5,7.6,2.2,12.2,2.2c4.5,0,8.4-0.8,11.7-2.5c3.4-1.7,6.2-4.1,8.5-7.1l8.9,6.2
	c-0.6,0.7-1.6,1.8-3.1,3.2c-1.5,1.4-3.4,2.8-5.8,4.2c-2.4,1.4-5.3,2.6-8.7,3.6c-3.4,1-7.3,1.6-11.8,1.6c-6.1,0-11.7-1.1-16.6-3.2
	s-9.1-5-12.6-8.5c-3.5-3.5-6.1-7.5-7.9-11.9c-1.8-4.4-2.7-8.9-2.7-13.4c0-5.5,1-10.6,3-15.3c2-4.7,4.7-8.7,8.3-12.2
	c3.5-3.4,7.8-6.1,12.8-7.9c5-1.9,10.4-2.8,16.4-2.8c5.1,0,10.1,0.9,15.1,2.7c4.9,1.8,9,4.6,12.1,8.4L235,72.6z"/>
<path fill="#364C86" d="M256.4,52.3h9.9v76.5h-9.9V52.3z"/>
<path fill="#364C86" d="M279.3,104.8c0-3.5,0.7-6.8,2.1-9.8c1.4-3,3.4-5.7,5.9-8c2.5-2.3,5.4-4.1,8.8-5.4c3.4-1.3,7-2,10.8-2
	c3.9,0,7.5,0.7,10.8,2c3.4,1.3,6.3,3.1,8.8,5.4c2.5,2.3,4.4,5,5.9,8c1.4,3,2.1,6.3,2.1,9.8s-0.7,6.8-2.1,9.9c-1.4,3.1-3.4,5.7-5.9,8
	c-2.5,2.3-5.4,4.1-8.8,5.4c-3.4,1.3-7,2-10.8,2c-3.9,0-7.5-0.7-10.8-2c-3.4-1.3-6.3-3.1-8.8-5.4c-2.5-2.3-4.4-4.9-5.9-8
	C280.1,111.6,279.3,108.3,279.3,104.8z M289.9,104.8c0,2.4,0.4,4.7,1.2,6.7c0.8,2.1,1.9,3.8,3.4,5.3c1.5,1.5,3.2,2.6,5.4,3.4
	c2.1,0.8,4.5,1.3,7.1,1.3s5-0.4,7.1-1.3c2.1-0.8,3.9-2,5.4-3.4c1.5-1.5,2.6-3.2,3.4-5.3c0.8-2.1,1.2-4.3,1.2-6.7
	c0-2.4-0.4-4.7-1.2-6.7c-0.8-2.1-1.9-3.8-3.4-5.3c-1.5-1.5-3.2-2.6-5.4-3.4c-2.1-0.8-4.5-1.3-7.1-1.3s-5,0.4-7.1,1.3
	c-2.1,0.8-3.9,2-5.4,3.4c-1.5,1.5-2.6,3.2-3.4,5.3C290.3,100.1,289.9,102.4,289.9,104.8z"/>
<path fill="#364C86" d="M373.3,80.8l-17.9,54.9c-0.4,1.2-1.1,2.8-1.9,4.8c-0.8,2-2,3.9-3.6,5.8c-1.6,1.9-3.7,3.5-6.2,4.8
	c-2.6,1.3-5.9,2-9.8,2c-1.1,0-2.2-0.1-3.2-0.2c-1-0.1-2-0.4-3-0.7l3.9-8.4c0.5,0.2,1.2,0.4,1.8,0.6c0.7,0.2,1.3,0.3,2,0.3
	c2.6,0,4.7-0.8,6.3-2.4c1.6-1.6,2.9-3.9,3.9-6.9l17.8-54.5H373.3z M366.8,63.6c0.6-1.8,1.8-3.4,3.7-4.7c1.8-1.3,3.7-2,5.7-2
	c2,0,3.5,0.7,4.5,2c1,1.3,1.2,2.9,0.6,4.7c-0.6,1.8-1.8,3.4-3.7,4.7c-1.8,1.3-3.7,2-5.7,2c-2,0-3.5-0.7-4.5-2
	C366.4,67,366.2,65.4,366.8,63.6z"/>
<path fill="#364C86" d="M433.4,128.8h-9.9v-7.4h-0.2c-1.2,2.6-3.4,4.6-6.5,6.2c-3.1,1.6-6.6,2.4-10.6,2.4c-2.6,0-5-0.4-7.2-1.1
	c-2.3-0.7-4.3-1.8-6-3.3c-1.7-1.5-3.1-3.4-4.1-5.7c-1-2.3-1.5-5.1-1.5-8.3V80.8h9.9v28.4c0,2.2,0.3,4.1,1,5.7
	c0.7,1.6,1.5,2.9,2.6,3.8c1.1,1,2.4,1.7,3.8,2.1c1.4,0.4,2.9,0.7,4.4,0.7c2,0,3.9-0.3,5.7-0.9c1.8-0.6,3.3-1.6,4.6-2.9
	c1.3-1.3,2.3-3,3.1-5c0.7-2,1.1-4.4,1.1-7.2V80.8h9.9V128.8z"/>
<path fill="#364C86" d="M448.3,80.8h9.9v7.4h0.2c0.7-1.3,1.5-2.4,2.6-3.5c1.1-1,2.3-1.9,3.7-2.7c1.3-0.7,2.8-1.3,4.4-1.8
	c1.6-0.4,3.2-0.7,4.8-0.7c1.6,0,3.1,0.2,4.4,0.6l-0.4,9.8c-0.8-0.2-1.6-0.4-2.4-0.5c-0.8-0.1-1.6-0.2-2.4-0.2
	c-4.8,0-8.5,1.3-11.1,3.7c-2.6,2.5-3.8,6.4-3.8,11.6v24.1h-9.9V80.8z"/>
<path fill="#364C86" d="M494.3,108.1c0,2.1,0.5,4,1.5,5.7c1,1.7,2.3,3.2,3.9,4.4c1.6,1.2,3.5,2.2,5.6,2.8c2.1,0.7,4.3,1,6.6,1
	c3.1,0,5.7-0.7,8-2c2.3-1.3,4.3-3.1,6.2-5.2l7.4,5.3c-5.5,6.5-13.1,9.8-23,9.8c-4.1,0-7.8-0.6-11.1-1.9c-3.3-1.3-6.1-3.1-8.4-5.3
	c-2.3-2.3-4.1-4.9-5.3-8c-1.2-3.1-1.9-6.4-1.9-10c0-3.6,0.7-6.9,2-10c1.4-3.1,3.2-5.7,5.6-8c2.4-2.3,5.2-4,8.5-5.3
	c3.3-1.3,6.9-1.9,10.7-1.9c4.6,0,8.5,0.7,11.7,2.2c3.2,1.5,5.8,3.4,7.8,5.8c2,2.4,3.5,5.1,4.4,8.1c0.9,3,1.4,6.1,1.4,9.2v3.2H494.3z
	 M525.4,100.9c-0.1-2-0.4-3.9-1-5.6c-0.6-1.7-1.6-3.2-2.8-4.4c-1.2-1.2-2.8-2.2-4.7-2.9c-1.9-0.7-4-1.1-6.5-1.1
	c-2.4,0-4.6,0.4-6.6,1.3c-2,0.8-3.7,1.9-5.1,3.3c-1.4,1.4-2.5,2.9-3.2,4.5c-0.8,1.7-1.1,3.3-1.1,4.9H525.4z"/>
<g>
</svg>
